<svg version="1.1" xmlns="http://www.w3.org/2000/svg" style="display: block;" viewBox="0 0 2048 2048" width="1024" height="1024" preserveAspectRatio="none">
<path transform="translate(0,0)" fill="rgb(75,100,147)" d="M 1008.67 851.387 C 1036.68 848.002 1067.98 855.443 1090.19 873.039 C 1123.59 899.488 1136.64 948.045 1139.77 988.833 C 1146.55 1076.98 1148.18 1214.46 1032.25 1225.73 C 925.179 1234.96 898.064 1140.28 897.738 1052.64 C 897.426 968.562 903.434 862.927 1008.67 851.387 z M 1025.8 1165.82 C 1035.49 1163.99 1047.2 1159.31 1052.24 1150.14 C 1079.7 1100.21 1074.12 1024.46 1067.5 969.395 C 1063.66 937.48 1048.54 909.06 1013.22 911.311 C 958.889 922.995 966.381 1033.16 967.798 1076.79 C 968.981 1113.17 978.547 1168.53 1025.8 1165.82 z"/>
<path transform="translate(0,0)" fill="rgb(75,100,147)" d="M 149.631 857.216 C 167.547 856.041 187.105 857.265 205.242 856.854 C 236.286 856.15 265.024 856.076 291.832 873.997 C 331.654 900.617 338.377 960.985 314.247 1000.07 C 305.902 1013.61 295.919 1019.72 282.325 1027.21 C 288.386 1029.67 293.699 1031.88 299.273 1035.37 C 318.368 1047.11 331.856 1066.12 336.629 1088.02 C 344.019 1121.29 339.311 1154.15 321.05 1182.95 C 308.188 1198.58 296.739 1207.29 277.235 1213.7 C 267.923 1216.72 258.313 1218.73 248.571 1219.7 C 232.087 1221.41 213.893 1220.17 197.071 1220.5 C 182.707 1220.22 167.829 1221.72 153.519 1220.59 C 117.327 1217.73 123.131 1175.47 123.055 1150.16 L 123.234 1073.47 L 123.037 955.96 C 123.057 934.71 123.065 913.452 123.61 892.211 C 124.09 873.481 130.954 862.192 149.631 857.216 z M 190.827 1058.86 L 191.033 1164.05 C 212.962 1163.47 233.687 1166.59 252.694 1155.57 C 264.308 1145.62 270.522 1133.39 271.006 1118.22 C 272.16 1082.1 259.479 1059.62 221.497 1058.72 C 215.283 1058.59 209.068 1058.51 202.852 1058.47 L 190.827 1058.86 z M 191.025 1003.18 C 211.105 1003.32 233.893 1005.62 249.657 991.297 C 263.733 974.123 266.833 937.602 248.159 922.717 C 234.175 911.571 208.39 914.39 190.945 914.033 L 191.025 1003.18 z"/>
<path transform="translate(0,0)" fill="rgb(75,100,147)" d="M 689.489 856.449 C 719.709 856.385 753.349 854.509 782.918 859.13 C 848.95 869.448 871.31 933.566 858.563 992.858 C 851.984 1023.46 839.736 1040.72 813.677 1057.56 L 844.911 1138.4 C 851.905 1156.57 866.852 1186.48 859.283 1204.99 C 856.203 1212.47 850.238 1218.4 842.735 1221.43 C 833.075 1225.41 822.116 1224.72 812.539 1220.7 C 796.02 1213.77 789.391 1186.89 783.576 1170.24 C 774.195 1144.86 760.719 1098.52 749.883 1075.75 C 739.732 1075.02 731.29 1075.24 721.169 1075.45 L 721.86 1150.04 C 721.966 1164.59 721.572 1178.34 721.124 1193.01 C 719.877 1233.88 658.638 1233.86 654.805 1196.67 C 653.098 1180.1 653.804 1162.14 653.806 1145.06 L 653.859 1051.78 L 653.805 947.265 C 653.797 928.16 653.327 909.031 654.408 889.958 C 655.697 867.223 668.093 858.402 689.489 856.449 z M 721.765 1017.89 C 741.194 1017.59 764.036 1019.99 779.364 1006.18 C 797.29 983.911 800.395 943.535 777.358 923.054 C 764.612 911.722 739.829 914.427 723.431 914.502 L 721.589 915.624 C 720.667 925.337 721.362 944.008 721.444 954.298 L 721.765 1017.89 z"/>
<path transform="translate(0,0)" fill="rgb(75,100,147)" d="M 1540.98 853.231 C 1561.41 850.822 1579.2 854.781 1592.86 871.413 C 1600.62 880.858 1603.11 889.295 1606.04 900.793 C 1621.93 963.066 1637.71 1025.37 1653.66 1087.62 L 1669.55 1150 C 1672.55 1161.9 1677.4 1179.54 1678.6 1191.32 C 1679.3 1197.71 1677.85 1204.16 1674.48 1209.63 C 1664.75 1225.37 1638.27 1228.43 1623.49 1218.28 C 1606.03 1206.3 1604.79 1177.89 1599.94 1158.99 C 1598.39 1152.98 1597.21 1145.31 1596.11 1139.15 L 1564.5 1139.05 C 1545.21 1139.08 1525.27 1138.35 1506.07 1139.13 C 1501.81 1160.24 1498.23 1182.77 1491.49 1203.06 C 1482.07 1231.39 1434.26 1231.38 1426.24 1202.25 C 1424.69 1196.6 1425.82 1185.22 1427.11 1179.41 C 1434.71 1145.31 1444.47 1110.46 1452.89 1076.61 L 1479.64 971.082 C 1486.78 942.329 1492.94 911.307 1503.02 883.449 C 1508.85 867.334 1524.68 857.229 1540.98 853.231 z M 1518.4 1079.07 L 1554.04 1078.99 C 1563.58 1079.07 1573.12 1079.07 1582.66 1079 C 1574.61 1043.02 1566.97 1006.95 1559.74 970.795 C 1558.05 962.461 1552.91 931.757 1550.32 925.626 C 1540.58 976.956 1529.94 1028.11 1518.4 1079.07 z"/>
<path transform="translate(0,0)" fill="rgb(75,100,147)" d="M 489.658 852.452 C 500.079 853.118 508.148 853.416 517.65 858.873 C 532.646 867.483 539.522 880.657 543.989 896.742 C 549.557 916.789 554.446 937.266 559.447 957.44 L 586.187 1064.51 L 605.592 1139.51 C 609.676 1155.24 620.654 1190.42 616.044 1203.55 C 605.812 1232.72 557.055 1231.45 548.315 1198.66 C 542.697 1177.58 539.171 1159.44 535.269 1139.02 C 522.106 1138.03 505.782 1138.96 492.169 1139 L 445.705 1139.08 C 442.282 1159.26 434.624 1192.95 425.388 1211.44 C 414.346 1233.55 364.518 1225.09 364.532 1200.03 C 364.545 1176.51 375.239 1143.62 381.296 1119.89 L 405.136 1024.83 L 425.978 941.49 C 436.011 900.996 437.973 855.757 489.658 852.452 z M 457.454 1079.73 C 465.582 1078.55 481.623 1079.1 490.5 1079.06 C 501.233 1079.11 511.531 1079.15 522.264 1079.68 C 513.568 1045.18 507.269 1009.99 499.638 975.308 C 497.867 967.261 491.342 930.623 488.906 925.523 C 483.487 955.46 477.521 985.294 471.009 1015.01 C 466.728 1034.55 460.428 1060.3 457.454 1079.73 z"/>
<path transform="translate(0,0)" fill="rgb(75,100,147)" d="M 1863.97 1001.19 C 1863.22 962.584 1862.91 920.049 1864.46 881.304 C 1866.91 861.937 1879.12 853.573 1896.98 853.329 C 1938.4 852.764 1931.34 897.872 1931.35 927.968 L 1931.32 999.295 C 1931.29 1060.15 1931.57 1121 1931.48 1181.86 C 1931.43 1210.99 1924.07 1224.38 1892.72 1223.39 C 1878.67 1221.82 1866.44 1214.23 1864.41 1199.19 C 1862.08 1181.91 1863.53 1163.37 1863.66 1145.82 L 1863.67 1063.78 C 1838.45 1062.89 1808.46 1063.66 1782.82 1063.72 C 1782.22 1106.5 1783.87 1148.91 1782.48 1192.1 C 1781.56 1220.47 1753.91 1231.36 1730 1219.2 C 1724.87 1216.59 1717.25 1207.61 1716.45 1201.7 C 1714.35 1186.03 1715 1169.45 1715 1153.56 L 1715.04 1067.89 L 1715.03 947.994 C 1715.04 927.588 1714.79 907.224 1715.45 886.828 C 1716.12 866.157 1726.39 856.37 1746.65 853.333 C 1789.64 853.552 1782.39 892.103 1782.34 922.239 L 1782.39 1001.23 L 1863.97 1001.19 z"/>
<path transform="translate(0,0)" fill="rgb(75,100,147)" d="M 1217.68 853.279 C 1262.44 851.631 1254.89 896.859 1254.86 927.373 L 1254.92 1006.91 L 1258.63 1000.22 C 1274.9 971.339 1291.52 942.652 1308.48 914.167 C 1314.8 903.317 1331.34 873.444 1338.67 865.046 C 1343.15 859.958 1349.07 856.35 1355.64 854.698 C 1373.39 850.083 1389.52 858.1 1393.47 876.609 C 1394.89 883.222 1394.43 890.102 1392.13 896.462 C 1387.97 908.066 1374.58 926.782 1367.37 938.14 L 1326.16 1003.83 C 1344.97 1051.48 1367.35 1098.35 1387.31 1145.55 C 1393.42 1159.99 1399.71 1171.78 1403.06 1187.27 C 1403.16 1194 1403.31 1199.67 1400.72 1206.03 C 1390.74 1230.58 1352.56 1228.69 1339.49 1208.36 C 1334.53 1200.64 1329.91 1188.77 1326.55 1180.12 C 1312.07 1142.85 1295.39 1106.39 1281.02 1069.1 C 1272.64 1082.93 1263.98 1096.58 1255.05 1110.06 C 1253.68 1132.99 1259.6 1193.63 1249.23 1210.47 C 1245.04 1217.28 1238.32 1221.7 1230.53 1223.27 C 1220.32 1225.32 1208.36 1223.52 1199.72 1217.51 C 1193.87 1213.43 1190.09 1208.18 1188.79 1201.17 C 1185.43 1183.05 1187.19 1162.63 1187.19 1144.19 L 1187.19 1045.43 L 1187.18 942.814 C 1187.16 922.8 1186.49 902.157 1188 882.253 C 1189.38 864.127 1201.02 855.766 1217.68 853.279 z"/>
<path transform="translate(0,0)" fill="rgb(147,198,144)" d="M 230.393 526.396 C 288.509 521.28 338.591 571.224 323.069 629.665 C 316.226 655.428 307.244 669.196 284.388 683.266 C 317.195 699.916 326.179 737.492 310.568 769.438 C 288.459 814.683 209.396 815.367 194.927 763.406 C 188.072 738.791 190.277 712.045 190.721 686.659 C 191.086 663.606 191.226 640.55 191.143 617.494 C 191.108 610.519 189.385 591.081 191.455 587.119 C 195.32 584.218 198.537 583.779 203.221 582.53 C 223.081 588.156 222.516 596.376 221.953 615.486 C 220.87 652.219 219.662 688.981 220.816 725.727 C 221.326 741.99 221.398 761.222 237.486 770.18 C 242.906 772.111 246.713 773.164 252.562 773.034 C 262.245 772.808 271.385 768.512 277.739 761.201 C 284.2 753.897 287.408 744.276 286.623 734.556 C 283.722 697.828 249.038 706.231 237.051 695.186 C 233.919 692.3 232.497 688.223 232.322 684.039 C 232.222 681.64 232.235 675.551 234.352 673.966 C 237.775 671.402 242.737 670.286 246.752 668.983 C 260.484 664.529 273.389 659.391 282.948 648 C 292.756 636.312 295.92 618.893 294.262 603.966 C 292.683 589.756 286.069 577.007 274.644 568.255 C 260.506 557.425 241.986 554.371 224.636 556.637 C 202.64 559.511 183.378 569.719 169.847 587.413 C 156.97 604.307 151.509 625.707 154.716 646.705 C 157.124 663.531 162.088 672.693 175.343 682.691 C 172.922 694.667 164.533 718.103 147.898 704.738 C 134.615 694.066 126.056 664.474 124.819 647.637 C 119.59 576.456 160.983 533.053 230.393 526.396 z"/>
<path transform="translate(0,0)" fill="rgb(127,168,219)" d="M 342.878 540.301 C 345.076 540.043 347.282 539.847 349.492 539.712 C 359.5 539.192 366.411 543.184 367.414 553.783 C 368.526 565.533 368.114 577.4 368.1 589.209 C 367.972 611.242 368.011 633.274 368.218 655.306 C 379.534 653.515 410.426 651.032 421.675 655.077 C 430.883 658.388 430.325 678.306 424.787 684.888 C 420.394 690.108 415.717 684.136 410.514 683.414 C 396.059 682.421 381.252 683.017 366.757 683.338 C 416.643 740.812 432.179 807.448 416.276 881.414 C 412.685 894.041 407.532 911.794 397.721 920.668 C 370.486 944.907 343.835 920.918 340.238 890.483 C 338.207 873.306 337.596 858.526 337.927 841.107 C 338.874 791.174 336.435 740.162 338.957 690.338 C 326.026 678.57 315.496 665.308 338.997 657.371 C 338.068 636.17 338.503 614.205 338.294 592.944 C 338.21 584.391 338.841 574.992 338.475 566.581 C 338.203 560.328 335.38 551.749 334.679 545.244 C 337.028 542.112 339.2 541.729 342.878 540.301 z M 384.111 889.875 C 399.414 846.736 394.765 789.939 376.203 747.906 C 374.89 744.933 370.075 735.422 368.091 733.613 L 367.879 828.239 C 367.852 844.199 365.447 886.485 374.148 898.137 L 376.582 899.131 C 381.109 897.223 381.907 894.473 384.111 889.875 z"/>
<path transform="translate(0,0)" fill="rgb(97,173,174)" d="M 657.625 1320.31 C 669.911 1318.85 686.344 1320.11 696.67 1327.21 C 737.568 1355.34 734.947 1439.53 712.743 1478.12 C 705.781 1490.23 692.011 1497.3 679.051 1499.84 C 634.945 1504.91 613.404 1481.97 607.736 1440.05 C 602.031 1397.86 603.636 1328.52 657.625 1320.31 z M 672.082 1471.41 C 690.123 1463.08 692.989 1435.38 693.11 1417.7 C 693.254 1396.61 694.579 1345.03 661.995 1349.17 C 642.333 1359.38 640.675 1386.33 640.724 1405.96 C 640.78 1428.83 638.692 1473.44 672.082 1471.41 z"/>
<path transform="translate(0,0)" fill="rgb(97,173,174)" d="M 1465.59 1320.38 C 1503.86 1316 1526.03 1343.01 1530.93 1378.02 C 1535.57 1411.21 1535.77 1451.7 1516.23 1480.49 C 1508.01 1492.6 1495.08 1497.75 1481.21 1499.94 C 1441.71 1503.79 1418.05 1480.83 1413.53 1443.23 C 1408.06 1397.81 1406.62 1327.82 1465.59 1320.38 z M 1473.36 1472.04 C 1496.79 1466.03 1497.21 1436.77 1498.24 1416.89 C 1499.24 1397.8 1498.62 1347.41 1470.69 1348.06 C 1461.54 1350.82 1457.73 1353.38 1453.39 1362.38 C 1442.68 1384.64 1437.25 1471.16 1473.36 1472.04 z"/>
<path transform="translate(0,0)" fill="rgb(97,173,174)" d="M 1323.65 1320.32 C 1376.41 1315.27 1392.14 1357.39 1392.45 1401.53 C 1392.73 1441.6 1390.83 1490.77 1342.1 1499.85 C 1298.93 1505.45 1277.13 1477.71 1272.49 1438.06 C 1267.62 1396.39 1269.27 1327.32 1323.65 1320.32 z M 1337.06 1471.72 C 1359.11 1463.46 1358.46 1419.56 1357.64 1400.5 C 1356.69 1378.59 1355.75 1348.45 1326.92 1348.96 C 1306.41 1360.9 1305.48 1389.31 1305.8 1410.61 C 1306.13 1432.38 1305.87 1474.86 1337.06 1471.72 z"/>
<path transform="translate(0,0)" fill="rgb(97,173,174)" d="M 1567.9 1323.14 C 1580.93 1322.51 1593.82 1322.69 1606.74 1322.86 C 1663.09 1323.58 1675.6 1377.74 1671.77 1424.01 C 1669.92 1446.43 1663.92 1468.98 1646.19 1484.35 C 1629.91 1497.59 1611.21 1496.89 1591.56 1496.79 C 1572.39 1497.08 1555.92 1500.59 1556.22 1474.74 C 1556.76 1428.27 1554.3 1379.85 1557.39 1333.48 C 1557.7 1328.82 1564.1 1324.97 1567.9 1323.14 z M 1590.99 1468.06 C 1604.53 1468.95 1614.45 1469.83 1624.96 1459.39 C 1634.19 1445.77 1637.18 1429.45 1637.19 1412.99 C 1637.21 1395.37 1635.91 1367.68 1619.94 1356.44 C 1612.66 1351.31 1599.09 1352.23 1590.32 1352.32 C 1591.7 1378.07 1590.3 1405.42 1590.45 1431.26 C 1590.51 1442 1589.58 1457.8 1590.99 1468.06 z"/>
<path transform="translate(0,0)" fill="rgb(97,173,174)" d="M 502.641 1322.42 C 526.672 1322.22 562.335 1318.62 577.405 1340.2 C 595.894 1366.67 590.096 1400.98 565.019 1420.02 C 569.842 1431.85 600.666 1490.94 580.341 1498.12 C 558.794 1505.73 553.579 1487.12 547.893 1471.17 C 542.764 1456.65 537.815 1442.06 533.049 1427.41 L 517.076 1427.75 C 517.201 1442.6 519.386 1477.74 514.889 1492.52 C 511.939 1502.22 485.072 1501.43 484.633 1486.77 C 484.468 1481.26 483.331 1472.15 483.829 1466.16 C 484.41 1423.16 482.289 1380 484.422 1337.05 C 484.973 1325.95 493.103 1323.55 502.641 1322.42 z M 518.131 1400.08 C 526.505 1399.92 531.933 1399.78 540.17 1398.66 L 546.712 1393.95 C 551.738 1385.82 554.935 1377.51 552.573 1367.74 C 551.205 1361.96 547.505 1357 542.352 1354.04 C 534.569 1349.59 526.654 1350.65 517.914 1350.94 L 518.131 1400.08 z"/>
<path transform="translate(0,0)" fill="rgb(97,173,174)" d="M 1060.43 1431.62 C 1056.8 1403.83 1060.09 1369.01 1059.38 1340.69 C 1059.04 1327.14 1065.55 1320.3 1079 1322.32 C 1085.32 1323.28 1087.05 1326.14 1090.86 1331.12 C 1092.18 1355.64 1090.59 1384.94 1091.14 1410 C 1090.96 1434.59 1091.76 1459.26 1090.86 1483.83 C 1090.29 1499.35 1075.95 1498.62 1064.74 1497.55 C 1053.99 1492.41 1052.14 1486.22 1047.3 1476.01 C 1033.17 1446.18 1022.19 1410.68 1006.77 1381.81 C 1007.83 1405.24 1007.36 1428.95 1007.26 1452.4 C 1007.21 1463.57 1008.39 1476.5 1006.65 1487.51 C 1006.15 1490.69 1004.32 1494.25 1001.58 1496.05 C 997.497 1498.73 990.74 1498.64 986.225 1497.31 C 982.6 1496.25 979.456 1493.86 977.796 1490.42 C 973.665 1481.87 974.129 1335.57 977.486 1329.53 C 980.462 1324.18 988.743 1323.07 994.081 1322.47 C 1003.06 1322.11 1012.41 1323.82 1017.39 1332.11 C 1023.97 1343.05 1028.57 1355.54 1033.5 1367.34 C 1042.27 1388.85 1051.25 1410.28 1060.43 1431.62 z"/>
<path transform="translate(0,0)" fill="rgb(97,173,174)" d="M 638.208 685.889 C 661.739 689.927 644.848 728.574 639.27 741.793 C 635.72 750.204 619.849 765.051 631.764 772.474 C 647.529 774.942 644.196 746.47 647.556 738.315 C 649.367 733.918 654.931 732.072 658.985 735.502 C 663.17 745.697 653.35 765.457 658.979 772.044 L 661.014 772.066 C 668.828 767.226 673.996 755.458 672.711 746.174 C 672.342 743.507 665.743 745.23 663.551 739.694 C 664.868 736.03 667.569 734.589 670.819 732.681 L 671.638 732.208 C 674.098 724.768 676.311 717.006 679.279 709.774 C 685.202 695.34 698.458 680.555 706.449 703.187 C 704.657 718.605 702.517 721.878 693.789 734.738 C 697.763 734.173 707.155 732.575 708.532 738.041 C 703.925 745.276 692.426 744.086 685.146 743.971 C 683.57 753.507 680.352 775.376 696.433 773.808 C 706.989 766.232 705.419 739.762 722.659 735.337 C 731.533 733.06 736.325 736.257 743.99 739.827 C 743.26 745.526 738.694 769.016 740.957 772.464 L 743.612 772.265 C 753.526 766.122 759.958 745.556 765.914 735.787 C 767.432 733.297 770.324 732.475 773.182 732.043 C 775.347 731.716 776.248 733.05 777.357 734.326 C 778.117 738.323 775.987 742.01 774.396 745.913 C 804.088 790.397 763.896 790.063 758.356 777.521 C 759.858 770.677 769.115 771.851 774.544 772.047 C 772.333 766.35 769.939 761.322 767.344 755.8 C 762.5 764.719 754.229 782.264 742.249 783.423 C 738.693 783.767 734.327 779.785 731.557 777.532 C 727.67 777.953 726.125 780.983 722.527 782.749 C 717.312 787.496 706.106 778.043 706.893 777.818 C 694.577 781.338 684.536 793.069 674.632 771.656 C 666.396 780.95 660.876 787.82 648.6 779.418 C 639.975 773.516 631.19 796.026 616.6 774.548 C 611.549 779.386 605.981 785.34 598.615 783.535 C 588.49 773.312 590.657 779.218 580.068 784.053 C 575.351 784.157 573.773 783.326 570.309 780.258 C 569.737 779.752 566.68 777.061 566.185 777.334 C 556.289 782.792 559.387 784.22 547.35 782.668 C 543.558 778.445 545.127 776.077 542.121 773.783 C 537.512 780.093 537.195 782.553 530.127 783.802 C 526.4 783.077 525.941 782.024 523.133 779.048 L 522.231 778.074 C 518.486 777.95 515.403 780.706 512.097 782.432 C 490.209 793.861 488.282 753.393 476.05 749.65 C 473.276 752.608 472.04 763.6 470.367 768.234 C 465.151 782.684 455.819 788.469 440.991 782.531 C 432.943 779.307 423.321 763.525 436.132 760.432 C 444.163 762.995 443.319 774.262 451.378 773.624 C 454.348 771.661 457.397 766.815 458.578 763.497 C 462.144 753.481 457.558 750.702 454.18 742.992 C 456.015 738.867 455.915 739.906 460.248 736.875 C 462.009 731.792 465.578 713.938 464.53 709.047 C 459.874 703.93 452.65 708.886 448.66 712.795 C 444.913 716.467 448.068 723.578 447.364 729.381 C 445.795 732.363 445.678 732.086 442.582 733.623 C 441.04 733.586 440.051 733.873 438.889 732.956 C 431.056 726.772 433.034 711.316 438.572 704.577 C 444.805 696.992 452.753 696.754 460.967 695.414 C 486.087 691.316 481.206 707.1 476.886 723.538 C 476.17 726.281 475.784 733.113 475.587 736.339 C 504.595 728.797 499.457 696.365 514.054 695.907 C 518.895 699.07 519.583 701.408 517.761 707.002 C 512.822 721.854 502.276 734.189 488.372 741.376 C 491.556 745.544 494.514 749.878 497.192 754.397 C 500.66 760.249 502.477 771.164 509.72 773.007 C 529.843 767.967 512.815 729.7 535.514 734.661 C 540.249 742.381 528.393 761.632 533.563 769.122 C 545.264 769.41 541.57 732.829 555.094 734.67 C 563.798 743.36 550.813 760.035 554.053 770.896 C 560.883 775.358 564.644 763.958 565.857 758.796 C 570.478 739.131 582.057 727.19 602.163 738.587 C 609.039 742.484 596.621 765.299 604.424 771.468 L 606.683 770.777 C 615.636 762.051 612.698 755.043 613.283 744.215 C 614.171 732.079 616.298 719.34 620.536 707.891 C 624.383 697.495 627.914 690.525 638.208 685.889 z M 581.121 774.638 C 589.103 769.045 592.535 754.799 591.282 745.57 L 588.834 743.622 C 578.349 749.609 571.149 765.291 581.121 774.638 z M 720.54 774.157 C 730.026 769.038 731.72 754.877 729.564 744.589 C 729.34 743.519 727.491 743.67 726.336 743.513 C 718.15 750.621 711.454 765.324 720.54 774.157 z M 626.679 745.438 C 631.038 737.774 646.243 703.978 637.567 697.483 C 629.766 708.363 627.128 731.74 625.303 745.431 L 626.679 745.438 z M 686.06 729.687 C 691.59 721.754 697.04 714.558 695.973 704.532 L 694.397 702.568 C 688.877 709.293 685.816 720.034 684.931 728.535 L 686.06 729.687 z"/>
<path transform="translate(0,0)" fill="rgb(97,173,174)" d="M 1297 732.897 C 1301.35 733.223 1302.11 734.736 1305.52 737.173 C 1308.84 737.486 1312.87 737.064 1314.05 740.452 C 1309.58 752.36 1309.24 760.228 1308.81 772.96 L 1319.55 768.154 C 1321.33 759.617 1320.92 728.919 1334.78 735.118 C 1337.88 740.663 1334.41 749.695 1332.83 756.263 C 1338.72 746.708 1344.71 733.876 1358.05 734.467 C 1367.01 739.404 1358.6 749.084 1360.75 754.947 C 1374.01 755.492 1361.47 728.152 1379.99 735.367 C 1381.78 738.274 1377.79 752.203 1376.74 756.791 C 1380.63 750.07 1389.53 732.308 1399.67 733.938 C 1414.07 736.253 1396.66 764.575 1403.18 772.403 C 1405.45 771.572 1413.67 762.963 1416.18 760.574 C 1414.46 751.27 1414.68 736.514 1425.45 733.033 C 1436.14 735.596 1423.35 759.766 1429.07 768.24 L 1431.04 767.623 C 1440.34 758.055 1437.87 738.276 1445.8 733.861 C 1450.09 734.065 1448.28 733.374 1451.56 735.585 C 1455 742.69 1448.95 763.295 1447 772.138 C 1465.5 763.107 1459.44 750.093 1474.12 737.666 C 1481.05 731.801 1494.24 733.916 1499.19 740.759 C 1500.16 746.01 1497.46 774.263 1495.23 780.209 C 1494.45 782.286 1492.11 783.099 1490.08 783.769 C 1487.2 783.438 1486.45 782.253 1484.3 780.234 L 1483.49 779.457 C 1477.92 780.34 1475.82 784.705 1469.32 783.163 C 1462.44 781.533 1464.26 777.84 1460.38 774.184 C 1455.57 777.8 1451.99 780.195 1446.95 783.393 C 1446.53 786.037 1446.03 788.669 1445.47 791.286 C 1443.03 802.33 1438.15 822.064 1427.92 828.806 C 1423.45 831.752 1414.04 831.056 1411.49 825.242 C 1401.4 802.205 1433.69 790.091 1437.73 778.2 L 1436.27 776.455 C 1433.55 777.198 1432.7 778.955 1430.39 781.366 C 1423.35 783.578 1422.51 781.243 1417.34 776.707 C 1411.32 777.529 1405.82 787.142 1398.39 784.715 C 1384.93 780.323 1394.61 759.073 1390.59 750.655 L 1388.86 751.037 C 1379.95 761.185 1381.86 781.057 1372.2 783.89 C 1364.22 781.648 1366.06 772.844 1366.01 765.719 C 1359.39 766.878 1349.95 767.78 1347.37 758.885 C 1346.42 755.607 1349.42 753.479 1349.82 749.926 C 1336.91 752.21 1336.68 774.376 1330.87 782.868 C 1327.5 784.289 1329.21 784.071 1325.55 783.469 C 1323.53 781.644 1323.27 781.386 1321.91 779.129 L 1320.89 777.387 C 1306.81 788.383 1308.86 784.315 1298.34 777.858 C 1295.11 775.876 1285.97 794.757 1273.56 774.955 C 1269.26 777.197 1264.67 779.935 1260.43 782.347 C 1259.37 787.97 1256.77 796.755 1256.13 802.621 C 1254.83 814.572 1241.98 840.1 1226.98 829.075 C 1210.99 817.323 1237.53 790.954 1247.18 780.987 L 1245.68 780.651 C 1236.86 784.015 1233.03 785.346 1227.33 776.533 C 1219.57 780.231 1215.42 784.819 1206.49 784.306 C 1173.96 782.437 1181.73 733.2 1210.5 733.986 C 1221.24 734.279 1223.59 745.301 1221.11 753.741 C 1218.93 761.183 1206.21 765.286 1199.91 767.903 L 1200.89 770.515 C 1208.9 777.845 1218.03 771.176 1225.47 766.297 C 1227.97 753.563 1239.72 724.034 1262.25 737.873 C 1269.35 742.234 1261.41 760.953 1262.24 769.782 L 1263.61 769.76 C 1277.15 762.059 1272.4 740.069 1297 732.897 z M 1476.05 774.188 C 1481.08 771.887 1481.34 771.645 1483.38 766.295 C 1485.48 760.807 1488.6 750.024 1486.49 744.514 C 1485.29 744.095 1484.79 743.822 1483.55 743.655 C 1473.14 747.952 1467.53 767.328 1476.05 774.188 z M 1286.88 773.974 C 1290.6 772.904 1292.51 772.901 1294.6 769.032 C 1297.2 764.217 1300.98 747.526 1297.9 742.994 C 1287.8 748.664 1279.32 763.958 1286.88 773.974 z M 1242.24 774.482 C 1250.36 769.166 1254.25 754.854 1252.43 745.765 C 1250.35 744.552 1251.32 744.898 1249.63 744.471 C 1239.96 750.063 1232.36 766 1242.24 774.482 z M 1420.04 821.55 C 1426.09 818.809 1425.76 818.274 1428.72 811.166 C 1429.98 808.146 1432.89 797.775 1432.61 794.886 C 1425.46 801.859 1416.75 810.832 1420.04 821.55 z"/>
<path transform="translate(0,0)" fill="rgb(97,173,174)" d="M 1013.02 693.036 C 1039.6 688.705 1022.74 722.498 1017.2 732.624 C 1018.77 734.57 1022.73 733.355 1027.54 735.974 L 1028.13 737.98 C 1024.9 746.24 1012.9 745.112 1005.99 743.71 C 1005.51 752.012 1004.02 773.179 1015.11 775.099 C 1027.19 771.087 1026.36 748.308 1038.42 738.67 C 1042.45 730.624 1069.59 736.652 1066.04 745.053 C 1062.5 753.42 1064.15 779.522 1056.5 784.463 C 1052.39 783.121 1052.28 780.77 1048.43 778.719 C 1033.49 791.001 1035.12 780.012 1028.6 778.177 C 1021.67 776.227 1008.57 796.83 995.804 772.545 C 992.093 776.723 986.076 783.359 979.975 783.941 C 974.934 784.422 973.304 780.629 969.253 777.394 C 960.556 778.399 953.621 795.427 942.78 774.679 C 938.017 777.745 933.136 781.13 928.411 784.299 C 926.111 796.496 919.733 837.167 901.039 830.548 C 878.809 822.676 899.019 799.488 909.011 790.571 C 912.396 787.55 920.702 780.091 918.543 775.469 C 915.569 779.741 911.191 784.129 905.602 783.63 C 902.623 782.362 902.14 780.758 900.332 778.274 C 901.795 780.284 898.837 776.449 898.541 776.646 C 892.779 780.433 888.324 784.41 881.309 784.211 C 858.59 783.71 867.152 753.073 870.216 739.397 C 872.158 730.726 875.989 715.504 869.024 708.417 C 857.451 706.503 848.816 728.539 845.45 737.346 C 841.348 751.811 840.259 766.382 836.639 780.742 C 835.511 785.215 829.478 784.069 826.035 781.348 C 823.023 773.369 831.821 724.781 830.89 705.52 C 822.87 710.424 817.25 720.1 813.164 721.046 C 801.984 710.744 829.312 688.259 841.492 698.132 C 844.74 703.291 843.92 715.04 843.619 721.123 C 850.127 709.101 856.895 694.704 873.22 696.298 C 895.323 698.457 884.654 729.827 882.479 743.485 C 881.152 751.818 877.235 764.274 882.828 771.535 C 898.131 776.549 898.44 747.25 901.953 739.107 C 903.986 734.394 908.988 732.068 912.923 736.55 C 913.181 737.792 907.919 767.674 907.367 771.848 C 920.164 760.986 919.198 755.765 923.66 739.837 C 924.708 736.098 928.596 731.802 933.017 733.918 C 937.666 742.896 930.468 761.392 931.634 770.84 L 933.643 770.981 C 946.288 762.931 949.73 721.511 975.629 738.004 C 977.915 737.347 978.109 737.208 980.454 737.142 C 984.686 743.98 974.856 764.734 980.362 772.459 C 988.067 773.119 991.65 762.773 993.485 756.935 C 997.97 742.666 984.367 744.004 986.188 735.79 C 988.562 733.527 990.983 733.33 994.225 732.528 C 997.856 717.104 999.644 702.78 1013.02 693.036 z M 958.841 774.898 C 966.647 769.504 971.952 751.971 966.884 744.553 L 964.4 743.307 C 957.58 750.376 947.063 767.61 958.841 774.898 z M 1041.43 774.41 C 1044.64 773.096 1046.39 773.098 1047.71 769.811 C 1050.76 762.24 1052.91 752.862 1052.32 744.764 C 1050.47 743.566 1051.36 743.885 1049.79 743.524 C 1040.45 750.651 1031.41 763.935 1041.43 774.41 z M 902.085 822.28 C 909.502 818.093 913.596 805.756 912.745 797.774 C 905.367 804.333 898.798 811.68 902.085 822.28 z M 1007.28 731.052 C 1011.46 724.979 1022.3 709.496 1015.27 702.622 C 1010.21 709.594 1007.06 721.62 1006.62 730.123 L 1007.28 731.052 z"/>
<path transform="translate(0,0)" fill="rgb(97,173,174)" d="M 1637.73 732.639 C 1641.8 733.528 1642.29 733.087 1644.36 736.568 C 1644.92 743.079 1642.03 750.443 1640.17 757.03 C 1643.66 750.266 1652.46 730.953 1662.81 733.77 C 1673.08 736.564 1665.96 748.485 1669.99 755.726 C 1675.67 752.787 1675.47 740.443 1680.65 734.837 C 1683.6 733.765 1683.42 733.626 1686.41 734.411 C 1693.44 741.913 1683.89 764.25 1686.71 769.71 C 1693.14 769.677 1697.58 758.425 1699.61 752.206 C 1704.73 736.511 1720.52 727.55 1734.44 739.247 C 1740.33 744.197 1725.27 771.515 1737.36 772.186 C 1747.72 765.641 1745.18 735.798 1764.58 734.533 C 1770.12 734.171 1778.06 735.754 1782.4 739.175 C 1784.33 745.845 1780 764.46 1778.52 772.034 C 1795.6 760.344 1789.77 746.579 1806.7 735.86 C 1810.44 730.843 1830.25 737.791 1829.62 741.144 C 1827.89 750.272 1830.19 781.237 1820.18 784.457 C 1817.27 783.599 1816.63 782.245 1814.7 779.835 L 1813.96 778.901 C 1809.35 778.966 1808.06 784.45 1801.88 784.642 C 1796.08 782.769 1793.83 779.329 1791.01 774.15 L 1777.4 783.496 C 1774.9 796.516 1772.63 809.976 1765.7 821.819 C 1760.94 829.953 1752.03 834.278 1743.42 827.835 C 1740.29 825.495 1740.09 819.005 1739.78 815.274 C 1743.95 797.771 1765.3 783.63 1765.39 779.402 C 1761.58 781.165 1758.65 782.927 1754.5 783.196 C 1751.56 781.992 1748.77 780.304 1746.66 777.831 C 1742.5 774.606 1739.1 785.488 1732.65 783.895 C 1725.44 782.114 1727.29 779.171 1722.65 775.459 C 1713.88 787.719 1706.81 786.023 1697.65 775.438 L 1697.09 774.78 C 1692.44 778.518 1689.94 780.497 1684.8 783.605 L 1683.66 784.282 C 1681.76 798.106 1676.2 832.832 1656.28 830.895 C 1653.5 830.612 1650.97 829.175 1649.3 826.934 C 1637.11 810.86 1660.75 791.22 1672.17 783.161 C 1672.55 776.889 1673.54 770.651 1674.41 764.419 C 1657.45 773.341 1655.01 762.854 1654.86 748.395 C 1652.31 752.173 1649.75 755.807 1647.78 759.944 C 1645.16 765.438 1642.25 779.849 1639.21 784.025 C 1635.15 785.269 1637.11 785.306 1633.11 783.95 C 1630.45 781.455 1630.39 780.471 1629.46 777.126 C 1605.46 787.222 1588.47 788.355 1587.67 759.606 C 1587.1 738.982 1610.93 725.264 1620.3 738.401 C 1622.93 742.148 1623.83 746.839 1622.79 751.297 C 1619.3 766.696 1605.3 765.889 1600.56 768.931 C 1607.52 777.904 1625.99 770.911 1628.08 762.305 C 1630.35 752.98 1629.47 739.582 1637.73 732.639 z M 1812.23 743.504 C 1804.41 748.574 1795.61 767.868 1806.86 773.227 C 1814.65 768.356 1817.74 753.286 1816.24 744.873 C 1813.9 743.207 1815.16 743.811 1812.23 743.504 z M 1710.33 772.971 C 1713.57 772.424 1714.63 772.793 1716.99 769.936 C 1721.01 765.06 1723.59 749.897 1722.87 743.935 C 1709.72 748.733 1704.9 759.91 1710.33 772.971 z M 1759.02 773.828 C 1767.17 767.751 1770.67 754.516 1769.6 744.736 C 1768.66 744.158 1768.12 743.713 1767.1 743.376 C 1759.15 749.643 1748.24 765.712 1759.02 773.828 z M 1657.74 821.092 C 1666.18 816.209 1669.6 804.169 1669.98 794.924 C 1662.82 801.848 1654.24 810.359 1657.74 821.092 z M 1750.26 821.808 C 1755.83 818.058 1763.16 802.037 1762.34 795.861 C 1755.5 802.964 1746.65 811.006 1750.26 821.808 z"/>
<path transform="translate(0,0)" fill="rgb(97,173,174)" d="M 873.977 1323.27 C 885.904 1322.71 943.134 1320.32 950.15 1326.36 C 953.042 1328.85 954.644 1333.25 954.859 1336.98 C 955.078 1340.77 953.779 1344.82 951.074 1347.53 C 942.492 1356.15 909.711 1352.9 897.275 1352.86 C 897.379 1365.83 897.108 1379.23 897.007 1392.24 C 906.167 1392.29 936.718 1389.53 940.913 1395.82 C 962.918 1428.82 908.88 1421.68 897.08 1421.49 L 897.126 1457.5 C 897.11 1460.3 897.245 1463.06 897.355 1465.86 C 901.416 1469.99 932.654 1466.39 940.56 1467.01 C 945.133 1467.37 950.137 1468.64 953.075 1472.45 C 956.115 1476.4 956.632 1482.3 955.795 1487.06 C 955.187 1490.53 953.394 1493.43 950.388 1495.32 C 948.333 1496.61 946.562 1497.06 944.164 1497.28 C 938.634 1497.78 878.988 1497.2 874.153 1495.84 C 871.292 1495.04 868.2 1493.62 866.772 1490.93 C 864.342 1486.35 863.387 1479.65 863.03 1474.51 C 861.914 1458.47 861.219 1338.89 864.776 1331.14 C 866.78 1326.78 869.807 1325.3 873.977 1323.27 z"/>
<path transform="translate(0,0)" fill="rgb(97,173,174)" d="M 752.69 1323.08 C 766.049 1322.42 826.017 1320.96 834.286 1324.51 C 837.413 1325.85 839.513 1328.47 840.689 1331.59 C 843.089 1337.96 842.025 1345.84 839.903 1352.13 C 835.553 1365.04 827.236 1377.96 820.797 1389.97 C 807.137 1415.43 792.894 1440.77 780.779 1467.02 C 791.074 1467.34 801.411 1466.92 811.975 1466.88 C 824.948 1466.82 845.002 1464.38 845.218 1483.07 C 845.299 1490.07 841.986 1493.89 835.897 1496.96 C 824.352 1497.63 754.73 1498.4 748.1 1495.23 C 744.36 1493.44 741.788 1489.1 740.82 1485.23 C 739.492 1479.92 740.09 1473.57 741.989 1468.47 C 747.811 1452.82 758.175 1437.22 766.034 1422.4 C 778.183 1399.5 789.303 1374.9 803.265 1353.11 C 788.486 1352.95 772.822 1354 758.201 1352.87 C 742.231 1351.63 738.611 1331.67 752.69 1323.08 z"/>
<path transform="translate(0,0)" fill="rgb(97,173,174)" d="M 438.029 1322.5 C 443.817 1322.43 457.411 1321.42 462.7 1325.74 C 471.522 1332.12 468.325 1350.71 457.066 1352.02 C 442.896 1353.67 426.623 1352.67 412.205 1352.94 C 412.413 1366.89 412.449 1380.84 412.315 1394.79 C 420.535 1394.7 450.562 1391.98 454.206 1398.42 C 473.482 1432.51 426.943 1425.09 411.927 1425.07 L 412.057 1456.35 C 412.5 1474.92 417.303 1507.12 385.611 1496.93 C 375.678 1493.72 375.787 1473.05 376.675 1464.4 C 379.353 1438.31 371.791 1344.66 381.174 1327.48 C 392.294 1319.72 423.057 1322.41 438.029 1322.5 z"/>
<path transform="translate(0,0)" fill="rgb(97,173,174)" d="M 1186.11 1322.54 C 1197.64 1322.31 1250.52 1319.79 1256.69 1326.38 C 1259.41 1329.29 1260.17 1334.57 1260.36 1338.35 C 1260.53 1341.79 1259.96 1345.09 1257.48 1347.67 C 1250.1 1355.36 1215.98 1352.2 1204.83 1352.13 L 1205 1395.07 C 1212.97 1395.03 1239.6 1392.64 1246.67 1398.3 C 1253.77 1403.99 1253.36 1419.31 1244.33 1423.27 C 1238.25 1425.94 1226.12 1424.93 1218.43 1424.72 L 1204.88 1424.98 C 1204.98 1441.24 1207.4 1476.16 1201.62 1491.79 C 1195.27 1503.21 1171.16 1499.85 1170.69 1487.06 C 1168.83 1437.04 1169.73 1386.73 1170.56 1336.69 C 1170.72 1326.71 1177.64 1323.78 1186.11 1322.54 z"/>
<path transform="translate(0,0)" fill="rgb(97,173,174)" d="M 135.206 1388.46 C 191.49 1386.5 249.667 1389.52 306.055 1388.66 C 334.848 1388.21 337.286 1426.23 312.25 1431.13 C 264.779 1431.77 217.094 1430.88 169.602 1431.33 C 156.035 1431.46 141.979 1431.64 128.478 1430.78 C 109 1418.47 110.379 1391.68 135.206 1388.46 z"/>
<path transform="translate(0,0)" fill="rgb(97,173,174)" d="M 1732.92 1389.13 C 1758.08 1388.93 1910.67 1386.35 1921.37 1390.36 C 1926.28 1392.21 1929.82 1396.91 1931.79 1401.61 C 1934.28 1407.56 1933.95 1413.45 1931.36 1419.32 C 1928.91 1424.9 1924.61 1427.61 1919.19 1429.88 C 1911.13 1431.04 1898.63 1430.53 1890.1 1430.46 L 1846.61 1430.34 L 1774.05 1430.36 C 1765.94 1430.36 1757.76 1430.49 1749.65 1430.33 C 1739.7 1429.88 1728.49 1431.47 1722.76 1421.25 C 1715.36 1408.06 1719.96 1395.89 1732.92 1389.13 z"/>
<path transform="translate(0,0)" fill="rgb(97,173,174)" d="M 1151.75 696.305 C 1174.96 694.313 1197.88 713.917 1176.28 729.605 C 1170.28 728.79 1172.04 712.339 1166.71 709.166 C 1148.62 698.394 1125.41 721.173 1153.67 732.852 C 1171.65 740.28 1189.87 752.551 1175.86 774.1 C 1171.63 780.621 1161.14 783.154 1154.06 784.146 C 1115.07 784.667 1112.2 754.511 1129.78 752.274 C 1137.78 755.732 1130.5 765.535 1139.01 772.223 C 1147.06 778.549 1171.54 770.474 1166.58 759.719 C 1159.96 745.356 1130.36 744.423 1127.55 724.393 C 1125.14 707.188 1136.65 699.253 1151.75 696.305 z"/>
<path transform="translate(0,0)" fill="rgb(97,173,174)" d="M 1563.12 696.413 C 1573.19 695.828 1605.39 693.286 1610.93 701.712 C 1610.9 705.452 1611.44 703.808 1609.3 706.834 C 1602.5 710.765 1586.74 709.114 1578.02 709.012 C 1572.88 731.569 1572.29 756.635 1567.24 779.16 C 1566.13 784.119 1559.54 784.487 1555.48 782.209 C 1553.36 779.319 1553.85 777.292 1553.92 773.65 C 1556.93 752 1560.38 730.413 1564.26 708.901 C 1532.13 708.972 1546.75 722.067 1540.35 732.14 C 1537.08 733.144 1537.31 733.043 1534.03 731.97 C 1530.95 729.378 1530.01 727.687 1529.56 723.655 C 1528.93 717.659 1530.8 711.669 1534.73 707.094 C 1542 698.648 1552.85 697.389 1563.12 696.413 z"/>
<path transform="translate(0,0)" fill="rgb(97,173,174)" d="M 1077.71 764.56 C 1097.13 765.486 1085.23 787.701 1079.94 797.7 C 1076.07 799.934 1075.26 800.236 1072.19 797.363 C 1069.77 789.552 1071.6 770.684 1077.71 764.56 z"/>
<path transform="translate(0,0)" fill="rgb(97,173,174)" d="M 1844.84 765.273 C 1849.92 763.823 1855.22 766.685 1856.8 771.724 C 1858.38 776.762 1855.65 782.139 1850.65 783.843 C 1847.31 784.984 1843.6 784.221 1840.98 781.849 C 1838.36 779.477 1837.23 775.869 1838.03 772.426 C 1838.83 768.982 1841.44 766.244 1844.84 765.273 z"/>
<path transform="translate(0,0)" fill="rgb(97,173,174)" d="M 1893.36 764.838 C 1908.11 764.062 1909.61 774.794 1901.12 783.958 C 1885.89 784.973 1886.07 774.384 1893.36 764.838 z"/>
<path transform="translate(0,0)" fill="rgb(97,173,174)" d="M 1869.15 764.919 C 1882.93 764.256 1883.85 775.256 1876.19 783.831 C 1860.79 785.084 1861.1 773.821 1869.15 764.919 z"/>
<path transform="translate(0,0)" fill="rgb(97,173,174)" d="M 1683.9 710.095 C 1696.95 713.313 1696.96 721.352 1686.03 727.854 C 1672.16 727.627 1671.62 714.313 1683.9 710.095 z"/>
<path transform="translate(0,0)" fill="rgb(97,173,174)" d="M 654.871 709.676 C 668.803 709.958 667.999 720.878 659.152 727.951 C 646.227 727.444 646.305 716.782 654.871 709.676 z"/>
</svg>